{"title":"Aussie Gold Hunters - S01E04","uid":15970189,"size":362678860,"categoryP":"video","categoryS":"tv_shows","magnet":"?xt=urn:btih:dc30c3d46d9e844032bfc7520cb5250f6406802f&amp;dn=Aussie+Gold+Hunters+-+S01E04&amp;tr=udp%3A%2F%2Ftracker.leechers-paradise.org%3A6969&amp;tr=udp%3A%2F%2Fzer0day.ch%3A1337&amp;tr=udp%3A%2F%2Fopen.demonii.com%3A1337&amp;tr=udp%3A%2F%2Ftracker.coppersurfer.tk%3A6969&amp;tr=udp%3A%2F%2Fexodus.desync.com%3A6969","seeders":6,"leechers":1,"uploader":"Bullrout","files":1,"time":1475770112,"description":"Aussie Gold Hunters - S01E04\r\n\r\nTorrential rain threatens to drown the season for the Dirt Dogs. Remote prospectors Henri and Kellie hit a hot streak. And the Gold Gypsies strike a once-in-a-lifetime find.\r\n\r\nComplete name                            : Aussie Gold Hunters - S01E04.mp4\r\nFormat                                   : MPEG-4\r\nFormat profile                           : Base Media / Version 2\r\nCodec ID                                 : mp42 (mp42/isom/avc1)\r\nFile size                                : 346 MiB\r\nDuration                                 : 43 min 30 s\r\nOverall bit rate mode                    : Variable\r\nOverall bit rate                         : 1 112 kb/s\r\n\r\nVideo\r\nID                                       : 2\r\nFormat                                   : AVC\r\nFormat/Info                              : Advanced Video Codec\r\nFormat profile                           :   \r\nFormat settings, CABAC                   : Yes\r\nFormat settings, ReFrames                : 3 frames\r\nCodec ID                                 : avc1\r\nCodec ID/Info                            : Advanced Video Coding\r\nDuration                                 : 43 min 30 s\r\nBit rate mode                            : Variable\r\nBit rate                                 : 980 kb/s\r\nMaximum bit rate                         : 1 000 kb/s\r\nWidth                                    : 720 pixels\r\nHeight                                   : 404 pixels\r\nDisplay aspect ratio                     : 16:9\r\nOriginal display aspect ratio            : 16:9\r\nFrame rate mode                          : Constant\r\nFrame rate                               : 25.000 FPS\r\nStandard                                 : PAL\r\nColor space                              : YUV\r\nChroma subsampling                       : 4:2:0\r\nBit depth                                : 8 bits\r\nScan type                                : Progressive\r\nBits/(Pixel*Frame)                       : 0.135\r\nStream size                              : 305 MiB (88%)\r\nWriting library                          : x264 core 112\r\nColor range                              : Limited\r\nColor primaries                          : BT.601 PAL\r\nTransfer characteristics                 : BT.470 System B, BT.470 System G\r\nMatrix coefficients                      : BT.601\r\n\r\nAudio\r\nID                                       : 1\r\nFormat                                   : AAC\r\nFormat/Info                              : Advanced Audio Codec\r\nFormat profile                           : LC\r\nCodec ID                                 : 40\r\nDuration                                 : 43 min 30 s\r\nBit rate mode                            : Variable\r\nBit rate                                 : 128 kb/s\r\nMaximum bit rate                         : 576 kb/s\r\nChannel(s)                               : 2 channels\r\nChannel positions                        : Front: L R\r\nSampling rate                            : 48.0 kHz\r\nFrame rate                               : 46.875 FPS (1024 spf)\r\nCompression mode                         : Lossy\r\nStream size                              : 39.8 MiB (12%)","torrent":{"xt":"urn:btih:dc30c3d46d9e844032bfc7520cb5250f6406802f","amp;dn":"Aussie+Gold+Hunters+-+S01E04","amp;tr":["udp%3A%2F%2Ftracker.leechers-paradise.org%3A6969","udp%3A%2F%2Fzer0day.ch%3A1337","udp%3A%2F%2Fopen.demonii.com%3A1337","udp%3A%2F%2Ftracker.coppersurfer.tk%3A6969","udp%3A%2F%2Fexodus.desync.com%3A6969"],"infoHash":"dc30c3d46d9e844032bfc7520cb5250f6406802f","infoHashBuffer":{"type":"Buffer","data":[220,48,195,212,109,158,132,64,50,191,199,82,12,181,37,15,100,6,128,47]},"announce":[],"urlList":[]}}